:version 1.10
:name ASF
:units
  mass 1
  length 1
  angle deg
:documentation
  ASF file generated by Kaydara
:root
  axis xyz
  order  tx ty tz rx ry rz
  position 0 0 0
  orientation 0 0 0
:bonedata
  begin
    id 1
    name RightUpLegDummy
    direction -0.718183 -0.695806 0.00816078
    length 4.904
    axis 0 0 0 xyz
  end
  begin
    id 2
    name RightUpLeg
    direction -0.0736652 -0.994202 0.0783343
    length 17.4976
    axis -2.72909 -3.00389 -4.00133 xyz
    dof rx ry rz
  end
  begin
    id 3
    name RightLeg
    direction -0.0389037 -0.994596 -0.0962598
    length 16.5821
    axis 3.95836 -18.5909 -4.46993 xyz
    dof rx ry rz
  end
  begin
    id 4
    name RightFoot
    direction -0.311643 -0.412678 0.855906
    length 3.77069
    axis -1.99483 -18.8351 -3.27644 xyz
    dof rx ry rz
  end
  begin
    id 5
    name RightToes
    direction -0.317852 0.0389852 0.947339
    length 3.85082
    axis -2.00228 -18.1713 -3.25211 xyz
    dof rx ry rz
  end
  begin
    id 6
    name SpineDummy
    direction 8.3039e-015 1 4.44677e-016
    length 4.6813
    axis 0 0 0 xyz
  end
  begin
    id 7
    name Spine
    direction -0.000262373 0.999988 0.00493267
    length 10.1015
    axis -0.00246081 0.00062579 0.0150362 xyz
    dof rx ry rz
  end
  begin
    id 8
    name Spine1
    direction 0 0 0
    length 0
    axis -0.00349562 0.000650293 0.0196666 xyz
    dof rx ry rz
  end
  begin
    id 9
    name HEadDummy
    direction -0.000343232 0.999999 0.00123745
    length 3.43865
    axis -0.00349562 0.000650293 0.0196666 xyz
  end
  begin
    id 10
    name HEad
    direction -0.0461221 0.980933 0.188796
    length 5.12695
    axis -0.00351404 -7.04812 0.0199272 xyz
    dof rx ry rz
  end
  begin
    id 11
    name LeftShoulder1Dummy
    direction 0.998904 -0.0399089 -0.0244534
    length 3.5433
    axis -0.00349562 0.000650293 0.0196666 xyz
  end
  begin
    id 12
    name LeftShoulder1
    direction 0.99951 1.64443e-005 0.0312999
    length 4.05031
    axis -0.00349562 0.000650293 0.0196666 xyz
    dof rx ry rz
  end
  begin
    id 13
    name LeftArm
    direction 0.984791 0.0515299 0.165927
    length 12.9126
    axis -64.823 -10.7743 5.20463 xyz
    dof rx ry rz
  end
  begin
    id 14
    name LeftForeArm
    direction 0.984968 0.0534808 0.16425
    length 10.8596
    axis -30.0462 -7.70601 1.87451 xyz
    dof rx ry rz
  end
  begin
    id 15
    name LeftHand
    direction 0.975871 0.0289682 0.216418
    length 6.62295
    axis -20.1348 -6.98077 1.86072 xyz
    dof rx ry rz
  end
  begin
    id 16
    name RightShoulderDummy
    direction -0.998877 -0.0405946 -0.0244307
    length 3.5433
    axis -0.00349562 0.000650293 0.0196666 xyz
  end
  begin
    id 17
    name RightShoulder
    direction -0.998933 -0.0249743 -0.0388558
    length 4.05031
    axis -0.0205316 -4.02113 1.41395 xyz
    dof rx ry rz
  end
  begin
    id 18
    name RightArm
    direction -0.997559 0.068664 0.0127103
    length 12.9638
    axis -67.3882 1.84188 -6.15987 xyz
    dof rx ry rz
  end
  begin
    id 19
    name RightForeArm
    direction -0.991508 0.0912848 0.0926241
    length 10.8312
    axis -22.1975 3.41087 -4.28711 xyz
    dof rx ry rz
  end
  begin
    id 20
    name RightHand
    direction -0.989262 0.0600788 0.133232
    length 6.57864
    axis -12.2911 2.17515 -4.39675 xyz
    dof rx ry rz
  end
  begin
    id 21
    name LeftUpLegDummy
    direction 0.718183 -0.695806 0.00816078
    length 4.904
    axis 0 0 0 xyz
  end
  begin
    id 22
    name LeftUpLeg
    direction 0.0831398 -0.99469 0.0606531
    length 17.4976
    axis -1.71016 2.29552 4.63832 xyz
    dof rx ry rz
  end
  begin
    id 23
    name LeftLeg
    direction 0.0498442 -0.991778 -0.117862
    length 16.5821
    axis 5.13757 15.5727 5.13348 xyz
    dof rx ry rz
  end
  begin
    id 24
    name LeftFoot
    direction 0.269026 -0.433896 0.85986
    length 3.77069
    axis -0.576502 15.6961 4.10267 xyz
    dof rx ry rz
  end
  begin
    id 25
    name LeftToes
    direction 0.277311 0.0251143 0.960452
    length 3.85048
    axis -0.576502 15.6961 4.10267 xyz
    dof rx ry rz
  end
:hierarchy
  begin
    root RightUpLegDummy SpineDummy LeftUpLegDummy
    RightUpLegDummy RightUpLeg
    RightUpLeg RightLeg
    RightLeg RightFoot
    RightFoot RightToes
    SpineDummy Spine
    Spine Spine1
    Spine1 HEadDummy LeftShoulder1Dummy RightShoulderDummy
    HEadDummy HEad
    LeftShoulder1Dummy LeftShoulder1
    LeftShoulder1 LeftArm
    LeftArm LeftForeArm
    LeftForeArm LeftHand
    RightShoulderDummy RightShoulder
    RightShoulder RightArm
    RightArm RightForeArm
    RightForeArm RightHand
    LeftUpLegDummy LeftUpLeg
    LeftUpLeg LeftLeg
    LeftLeg LeftFoot
    LeftFoot LeftToes
  end

:SAMPLES-PER-SECOND 30
:FULLY-SPECIFIED
:DEGREES
127
root  -0.207916 39.1872 44.7652 174.318 2.31064 -178.146
RightUpLeg  -9.41962 -4.13108 4.17867
RightLeg  19.2949 5.8039 -3.72017
RightFoot  -5.30105 0.0927778 -1.18097
RightToes  3.97569e-016 -3.18055e-015 -2.98177e-016
Spine  9.85719 -0.126048 4.9787
Spine1  10.658 0.451248 0.315742
HEad  -5.57622 1.74916 -0.47978
LeftShoulder1  -3.88251e-019 9.70628e-020 -3.87848e-018
LeftArm  -0.992039 45.5123 -71.7313
LeftForeArm  -27.2369 -35.0409 6.59655
LeftHand  -0.93824 -5.61497 10.5229
RightShoulder  8.42308 10.9583 38.9781
RightArm  19.8731 -37.6006 20.2257
RightForeArm  -17.2876 24.0025 -12.1782
RightHand  -1.12759 1.05442 -19.8516
LeftUpLeg  -11.3984 -1.43059 -2.89126
LeftLeg  24.0838 -5.27573 5.05543
LeftFoot  -8.07901 -0.1405 2.71172
LeftToes  4.86531e-011 4.41684e-011 -2.86034e-011
128
root  -0.13801 39.3306 44.5343 176.095 2.97368 -178.581
RightUpLeg  -10.4794 -2.80466 4.01126
RightLeg  18.1261 5.22984 -3.47826
RightFoot  -4.73564 0.101058 -1.24252
RightToes  3.97569e-016 -3.18055e-015 -2.98177e-016
Spine  10.3449 -0.394057 4.56703
Spine1  10.4321 0.178324 -0.0599716
HEad  -6.95817 2.97626 -0.399159
LeftShoulder1  -3.88251e-019 9.70628e-020 -3.87848e-018
LeftArm  0.605535 53.9478 -70.1498
LeftForeArm  -30.2084 -32.2623 5.76214
LeftHand  -0.554272 -1.95557 9.4864
RightShoulder  8.58623 11.0293 39.5965
RightArm  23.136 -44.312 11.8465
RightForeArm  -14.7125 21.9124 -10.8962
RightHand  -0.97651 0.481036 -18.8377
LeftUpLeg  -11.9223 -0.931231 -3.19957
LeftLeg  22.3574 -4.94699 4.90146
LeftFoot  -8.06432 -0.102356 1.83395
LeftToes  4.86531e-011 4.41684e-011 -2.86034e-011
129
root  -0.07337 39.4375 44.3752 177.838 3.77261 -179.085
RightUpLeg  -11.8047 -2.09482 3.78283
RightLeg  17.4112 5.24569 -3.27663
RightFoot  -4.63559 0.0945483 -1.14461
RightToes  3.97569e-016 -3.18055e-015 -2.98177e-016
Spine  11.2475 -0.578229 3.64526
Spine1  10.3754 -0.166874 0.0640664
HEad  -8.80574 4.20344 -0.418283
LeftShoulder1  -3.88251e-019 9.70628e-020 -3.87848e-018
LeftArm  -1.19973 61.8333 -69.2841
LeftForeArm  -28.0256 -28.2321 4.01302
LeftHand  -0.430235 -0.0995363 9.87969
RightShoulder  8.70243 11.0821 40.0276
RightArm  23.811 -49.4812 2.34476
RightForeArm  -8.54223 19.2909 -8.15252
RightHand  -0.721656 -0.78661 -17.6436
LeftUpLeg  -12.6862 -0.407721 -3.61402
LeftLeg  20.9421 -4.53367 4.82635
LeftFoot  -8.19176 -0.0633117 0.963033
LeftToes  4.86531e-011 4.41684e-011 -2.86034e-011
130
root  -0.0100318 39.4932 44.2883 179.681 4.60602 -179.459
RightUpLeg  -13.5753 -1.65621 3.69714
RightLeg  17.0607 5.48279 -3.1406
RightFoot  -4.93693 0.0583562 -0.672698
RightToes  3.97569e-016 -3.18055e-015 -2.98177e-016
Spine  11.8967 -0.750382 2.68166
Spine1  11.2095 -0.556816 0.319438
HEad  -11.1528 5.50077 -0.461418
LeftShoulder1  -3.88251e-019 9.70628e-020 -3.87848e-018
LeftArm  -10.908 68.7841 -68.568
LeftForeArm  -15.4103 -23.7052 -0.302528
LeftHand  -0.465416 -0.182128 10.5413
RightShoulder  8.70582 11.0805 40.0471
RightArm  22.4814 -53.2879 -7.08637
RightForeArm  -1.26792 15.9814 -5.37667
RightHand  -0.488583 -2.09352 -16.5067
LeftUpLeg  -14.02 0.195433 -3.93147
LeftLeg  20.1705 -4.22033 4.81286
LeftFoot  -8.4846 -0.0345182 0.290627
LeftToes  4.86531e-011 4.41684e-011 -2.86034e-011
131
root  0.0361121 39.4516 44.2763 -178.016 5.51869 -179.628
RightUpLeg  -16.543 -1.67336 3.96203
RightLeg  17.6967 6.39905 -3.13852
RightFoot  -5.37773 0.0345967 -0.343049
RightToes  3.97569e-016 -3.18055e-015 -2.98177e-016
Spine  12.2036 -0.968215 2.22876
Spine1  12.5129 -0.875254 0.190823
HEad  -13.6611 6.88697 -0.505285
LeftShoulder1  -3.88251e-019 9.70628e-020 -3.87848e-018
LeftArm  -21.0967 74.9138 -67.643
LeftForeArm  -2.22654 -19.0879 -3.21512
LeftHand  -0.481365 -0.453899 10.3678
RightShoulder  8.5857 11.0121 39.6332
RightArm  23.8874 -56.4037 -16.1501
RightForeArm  2.34213 12.6394 -4.54949
RightHand  -0.391994 -2.68044 -15.9484
LeftUpLeg  -16.563 0.700203 -4.11189
LeftLeg  20.5284 -3.82531 5.04927
LeftFoot  -9.14413 -0.010705 -0.416053
LeftToes  4.86531e-011 4.41684e-011 -2.86034e-011
132
root  0.0538669 39.2375 44.3529 -175.267 6.55379 -179.618
RightUpLeg  -21.079 -2.66512 4.80202
RightLeg  20.1414 8.53938 -3.34762
RightFoot  -6.33825 0.0351749 -0.342204
RightToes  3.97569e-016 -3.18055e-015 -2.98177e-016
Spine  12.9964 -1.15646 2.37082
Spine1  13.1186 -0.972256 -0.458923
HEad  -15.9183 8.00762 -0.529898
LeftShoulder1  -3.88251e-019 9.70628e-020 -3.87848e-018
LeftArm  -24.5683 80.4699 -65.8245
LeftForeArm  4.01597 -15.7064 -3.67658
LeftHand  -0.415138 -0.180978 9.40527
RightShoulder  8.45094 10.9361 39.163
RightArm  29.2424 -58.7876 -25.9249
RightForeArm  2.92004 10.2886 -4.7644
RightHand  -0.379873 -2.77134 -15.947
LeftUpLeg  -20.7135 1.27263 -4.20506
LeftLeg  22.7938 -3.56919 5.62862
LeftFoot  -10.4601 0.00097246 -1.3001
LeftToes  4.86531e-011 4.41684e-011 -2.86034e-011
133
root  0.0451442 38.7963 44.5075 -172.449 7.66626 -179.44
RightUpLeg  -26.7896 -3.67062 5.95431
RightLeg  24.5438 10.8395 -3.52732
RightFoot  -8.1145 0.0376471 -0.362816
RightToes  3.97569e-016 -3.18055e-015 -2.98177e-016
Spine  14.6915 -1.26493 2.84136
Spine1  12.8529 -0.852239 -1.40616
HEad  -17.9455 8.70697 -0.549299
LeftShoulder1  -3.88251e-019 9.70628e-020 -3.87848e-018
LeftArm  -19.1798 85.6703 -58.8189
LeftForeArm  6.02603 -13.826 -3.62245
LeftHand  -0.345353 0.2042 8.44054
RightShoulder  8.38515 10.9041 38.9194
RightArm  36.6949 -59.9655 -36.5644
RightForeArm  2.98753 8.98776 -4.76184
RightHand  -0.381467 -2.69373 -15.5711
LeftUpLeg  -26.1957 2.28571 -4.27328
LeftLeg  27.2298 -3.92902 6.40413
LeftFoot  -12.3628 -0.020468 -1.93905
LeftToes  4.86531e-011 4.41684e-011 -2.86034e-011
134
root  0.0191306 38.1098 44.7041 -169.83 8.73088 -179.187
RightUpLeg  -33.1777 -3.64133 6.73012
RightLeg  30.6344 12.1152 -3.32385
RightFoot  -10.378 0.0407431 -0.478057
RightToes  3.97569e-016 -3.18055e-015 -2.98177e-016
Spine  16.7458 -1.34762 3.25155
Spine1  12.6275 -0.711526 -2.25394
HEad  -20.203 9.37394 -0.742179
LeftShoulder1  -3.88251e-019 9.70628e-020 -3.87848e-018
LeftArm  101.106 88.7593 62.0444
LeftForeArm  7.03527 -13.1327 -3.75186
LeftHand  -0.301332 0.188535 7.3478
RightShoulder  8.33234 10.8876 38.7018
RightArm  44.4018 -59.9785 -46.8218
RightForeArm  3.34044 8.52326 -4.46186
RightHand  -0.38468 -2.39304 -14.1778
LeftUpLeg  -32.413 3.39489 -4.40368
LeftLeg  33.2633 -4.65763 7.33026
LeftFoot  -14.5013 -0.0614687 -1.90243
LeftToes  4.86531e-011 4.41684e-011 -2.86034e-011
135
root  -0.0131849 37.1667 44.915 -167.509 9.54868 -179.029
RightUpLeg  -40.0171 -3.82216 7.47508
RightLeg  38.0405 13.4375 -2.93403
RightFoot  -12.8351 0.0409326 -1.10945
RightToes  3.97569e-016 -3.18055e-015 -2.98177e-016
Spine  18.7231 -1.47272 3.40878
Spine1  12.9668 -0.747578 -2.73573
HEad  -23.0316 10.2624 -1.24025
LeftShoulder1  -3.88251e-019 9.70628e-020 -3.87848e-018
LeftArm  139.455 84.2292 100.534
LeftForeArm  8.08677 -13.339 -3.97214
LeftHand  -0.262887 -0.480134 5.68913
RightShoulder  8.24132 10.8573 38.3298
RightArm  51.1924 -59.1958 -55.8449
RightForeArm  4.23124 8.64669 -4.23881
RightHand  -0.373747 -1.98836 -12.1727
LeftUpLeg  -38.9707 3.78825 -4.57012
LeftLeg  40.3169 -5.22506 8.66956
LeftFoot  -16.8602 -0.0969892 -1.56774
LeftToes  4.86531e-011 4.41684e-011 -2.86034e-011
136
root  -0.0484356 35.9485 45.1181 -165.52 10.0058 -178.933
RightUpLeg  -47.0435 -3.78716 8.07341
RightLeg  46.4057 14.1578 -2.80678
RightFoot  -15.6132 0.00400426 -2.09747
RightToes  3.97569e-016 -3.18055e-015 -2.98177e-016
Spine  20.6488 -1.6592 3.6423
Spine1  13.7052 -0.920818 -3.01482
HEad  -26.2603 11.0106 -1.81157
LeftShoulder1  -3.88251e-019 9.70628e-020 -3.87848e-018
LeftArm  142.424 79.7218 103.128
LeftForeArm  9.03784 -14.0034 -4.26847
LeftHand  -0.213616 -1.45049 3.97854
RightShoulder  8.20305 10.8577 38.1427
RightArm  55.928 -57.8526 -63.0298
RightForeArm  5.85503 8.37157 -4.267
RightHand  -0.363558 -1.4967 -10.413
LeftUpLeg  -45.7305 3.34936 -4.5715
LeftLeg  48.2573 -5.81226 10.4792
LeftFoot  -19.7188 -0.152118 -1.68544
LeftToes  4.86531e-011 4.41684e-011 -2.86034e-011
137
root  -0.093362 34.4675 45.2765 -163.712 10.3768 -178.591
RightUpLeg  -54.0845 -3.10343 8.65394
RightLeg  55.1156 14.3072 -3.31079
RightFoot  -18.6966 -0.0786335 -2.89918
RightToes  3.97569e-016 -3.18055e-015 -2.98177e-016
Spine  22.3384 -1.79746 4.42829
Spine1  14.6749 -0.91588 -3.45542
HEad  -29.3842 11.2322 -2.13523
LeftShoulder1  -3.88251e-019 9.70628e-020 -3.87848e-018
LeftArm  142.667 75.6595 102.489
LeftForeArm  8.97124 -14.5954 -4.64688
LeftHand  -0.153 -1.85023 2.72943
RightShoulder  8.28882 10.9176 38.4227
RightArm  57.4648 -56.367 -67.5886
RightForeArm  7.76592 6.33049 -4.56795
RightHand  -0.403916 -0.694168 -9.651
LeftUpLeg  -52.653 2.95216 -4.26204
LeftLeg  56.8964 -6.92316 12.3189
LeftFoot  -23.0323 -0.265195 -2.32703
LeftToes  4.86531e-011 4.41684e-011 -2.86034e-011
138
root  -0.147674 32.7907 45.354 -161.884 11.0865 -177.834
RightUpLeg  -61.0521 -1.53121 9.26824
RightLeg  63.6613 14.346 -4.32254
RightFoot  -21.7504 -0.170988 -3.24733
RightToes  3.97569e-016 -3.18055e-015 -2.98177e-016
Spine  23.6704 -1.71782 5.59757
Spine1  15.5103 -0.509433 -4.0861
HEad  -31.9405 11.08 -2.30311
LeftShoulder1  -3.88251e-019 9.70628e-020 -3.87848e-018
LeftArm  142.343 72.3085 101.599
LeftForeArm  7.93981 -14.5106 -4.92023
LeftHand  -0.079142 -1.53209 1.52183
RightShoulder  8.39542 10.9802 38.7951
RightArm  56.009 -55.2258 -69.5608
RightForeArm  8.87378 2.52594 -5.28885
RightHand  -0.457762 -0.26843 -10.0903
LeftUpLeg  -59.5732 3.38257 -3.76299
LeftLeg  65.7152 -8.56616 13.835
LeftFoot  -26.4545 -0.421284 -2.98942
LeftToes  4.86531e-011 4.41684e-011 -2.86034e-011
